<?xml version="1.0" encoding="UTF-8"?><svg id="Calque_2" xmlns="http://www.w3.org/2000/svg" viewBox="0 0 2297.24856 1142.67542"><g id="Calque_1-2"><path d="m1004.03125,158.10352c6.67822-10.29736,14.50195-19.96118,23.42432-28.82007,4.55615-4.52368,9.32568-8.75098,14.27393-12.69507-4.94824,3.94434-9.71777,8.17139-14.27393,12.69531-8.92236,8.85889-16.74609,18.52246-23.42432,28.81982Z" style="fill:#0f4496;"/><path d="m1150.42725,51.0835c52.52783.54639,101.83594,21.13135,139.19775,58.22754,13.2666,13.17261,24.45898,27.86719,33.4248,43.68896-8.96582-15.82178-20.1582-30.5166-33.4248-43.68921-37.36182-37.09619-86.66992-57.68115-139.19775-58.22754v-.02148c-.24219-.00122-1.02246-.00171-1.80273-.00171h0c.78027,0,1.56006.00049,1.80273.00195v.02148Z" style="fill:#0f4496;"/><path d="m1010.96094,397.25781c-5.44824-5.16602-10.55469-10.58447-15.33252-16.21606,4.77783,5.63159,9.88379,11.0498,15.33252,16.21582,62.56104,59.31226,97.54932,120.47913,113.40332,171.10449h0c-15.854-50.62549-50.84229-111.79224-113.40332-171.10425Z" style="fill:#0f4496;"/><path d="m1146.82178,51.0835v-.00024c-52.52783.54639-101.83643,21.13135-139.19824,58.22754-16.69922,16.58081-30.11865,35.56958-39.93799,56.18823,9.81934-20.61865,23.23926-39.60718,39.93799-56.18799,37.36182-37.09619,86.67041-57.68115,139.19824-58.22754Z" style="fill:#0f4496;"/><path d="m1148.27832,51.06006c-.65332.00024-1.25098.00073-1.45703.00171v.00513-.00488c.20605-.00122.8042-.00171,1.45703-.00195Z" style="fill:#0f4496;"/><path d="m1030.32568,376.83203c33.36572,31.63428,67.91943,73.46606,93.40576,119.57947-25.48633-46.1134-60.04004-87.94519-93.40576-119.57971-34.70703-32.90601-53.82227-77.35547-53.82227-125.15967,0-27.49048,6.37939-53.98169,18.43994-77.79761-12.06055,23.81592-18.43994,50.30713-18.43994,77.79785,0,47.8042,19.11523,92.25342,53.82227,125.15967Z" style="fill:#0f4496;"/><path d="m1286.2876,397.25781c-62.56104,59.31201-97.54932,120.47876-113.40332,171.10425h0c15.854-50.62537,50.84229-111.79224,113.40332-171.10449,4.07617-3.8645,7.95752-7.87256,11.65967-12.00098-3.70215,4.12842-7.58398,8.13647-11.65967,12.00122Z" style="fill:#0f4496;"/><path d="m1151.43311,543.73315c4.57568-12.07764,9.93115-24.01099,15.90723-35.70752-5.97607,11.69653-11.33154,23.62976-15.90723,35.7074-.49219,1.29932-1.65039,1.94897-2.80859,1.94897-1.15869,0-2.31689-.64966-2.80908-1.94897-6.10059-16.10352-13.58838-31.95032-22.08398-47.32153,8.49561,15.37122,15.9834,31.21802,22.08398,47.32166.98438,2.59863,4.6333,2.59863,5.61768,0Z" style="fill:#0f4496;"/><path d="m1258.56299,384.94946c.0498-.04956.09961-.09741.14941-.14697-.0498.04956-.09961.09741-.14941.14697Z" style="fill:#0f4496;"/><polygon points="758.52539 493.10596 758.5249 493.10596 731.65479 503.59851 758.52539 493.10596" style="fill:#0f4496;"/><path d="m197.91357,650.10059c.14014-.0874.29321-.16333.45703-.23059-.16382.06726-.31689.14319-.45703.23059Z" style="fill:#0f4496;"/><path d="m671.16309,566.06177c.19775.17139.36182.3728.50293.58887-.14111-.21594-.30518-.41748-.50293-.58887Z" style="fill:#0f4496;"/><path d="m493.44971,655.35046h0c.42725,0,.84912-.09583,1.23486-.28052l51.15869-24.50903-51.15869,24.50891c-.38574.18481-.80762.28064-1.23486.28064Z" style="fill:#0f4496;"/><path d="m719.67725,551.24658c-1.90332,0-2.98193-1.61255-2.85205-3.14197-.12988,1.52942.94824,3.14209,2.85205,3.14209h136.1416v-.00012h-136.1416Z" style="fill:#0f4496;"/><path d="m799.37891,507.54321c-.16992,0-.33789.02637-.50391.05627.1665-.02991.33398-.05627.50391-.05627h0Z" style="fill:#0f4496;"/><path d="m718.44727,545.80786l64.06836-30.53552-64.06836,30.53552c-.6875.32764-1.14453.8313-1.396,1.40259.25146-.57129.70898-1.07495,1.396-1.40259Z" style="fill:#0f4496;"/><path d="m950.4375,511.3623c-.05957.16736-.13037.3324-.22559.4906.09521-.1582.16602-.32324.22559-.4906Z" style="fill:#0f4496;"/><path d="m923.90625,534.74634h.00049l25.70117-22.18066c.25049-.21631.45068-.45703.604-.71277-.15332.25562-.35352.49634-.604.71277l-25.70166,22.18066Z" style="fill:#0f4496;"/><path d="m1047.53711,112.15088c-.66016.48193-1.31592.97168-1.96973,1.46387.65381-.49219,1.30957-.98193,1.96973-1.46387Z" style="fill:#0f4496;"/><path d="m1251.3623,514.25635l6.08594,10.28552c.10059.17041.22949.31628.36035.45935-.13086-.14307-.25977-.28906-.36035-.45947l-6.08594-10.2854Z" style="fill:#0f4496;"/><path d="m1258.05078,525.23596c-.04541-.03918-.1001-.06604-.14307-.10815.04297.04224.09766.06897.14307.10815Z" style="fill:#0f4496;"/><path d="m1244.90186,502.12598c-.01709.12097-.02637.24353-.02783.36694.00146-.12329.01074-.24597.02783-.36694Z" style="fill:#0f4496;"/><path d="m1259.9082,525.9447h0c-.25244,0-.50049-.03333-.73828-.09692.23779.0636.48584.09692.73828.09692Z" style="fill:#0f4496;"/><path d="m1221.28369,426.18604c12.09717-14.8833,24.6875-28.71582,37.23145-41.18823-12.54395,12.47241-25.13428,26.30493-37.23145,41.18823Z" style="fill:#0f4496;"/><path d="m1201.646,451.94434c2.53271-3.55029,5.10449-7.05688,7.70947-10.5166-2.60498,3.45972-5.17676,6.96655-7.70947,10.5166Z" style="fill:#0f4496;"/><path d="m1186.96826,473.73901c3.52783-5.56519,7.1709-11.0481,10.90869-16.43726-3.73779,5.38916-7.38086,10.87207-10.90869,16.43726Z" style="fill:#0f4496;"/><path d="m1209.35547,441.42773c3.9082-5.18994,7.89062-10.27441,11.92822-15.2417-4.0376,4.96729-8.02002,10.05176-11.92822,15.2417Z" style="fill:#0f4496;"/><path d="m1180.07178,484.97583c2.24365-3.78003,4.54443-7.52661,6.89648-11.23682-2.35205,3.71021-4.65283,7.45679-6.89648,11.23682Z" style="fill:#0f4496;"/><path d="m998.71973,166.84326c-1.28271,2.2627-2.51416,4.55127-3.68994,6.86621,1.17578-2.31494,2.40723-4.60352,3.68994-6.86621Z" style="fill:#0f4496;"/><path d="m1053.65869,107.86938c-.08691.05762-.17139.11841-.25781.17627.08643-.05786.17139-.11865.25781-.17627Z" style="fill:#0f4496;"/><path d="m1167.34033,508.02563c3.98389-7.79761,8.24365-15.48999,12.73145-23.0498-4.48779,7.55969-8.74756,15.2522-12.73145,23.0498Z" style="fill:#0f4496;"/><path d="m669.29395,565.39063c.76074,0,1.38965.25757,1.8623.66455-.47266-.40698-1.10156-.66467-1.8623-.66467h-209.96826c-.19824,0-.39404.0282-.58691.06885.19336-.04065.38916-.06873.58691-.06873h209.96826Z" style="fill:#0f4496;"/><path d="m1327.3418,160.9873c.03271.06445.06787.12744.1001.19189-.03223-.06445-.06738-.12744-.1001-.19189Z" style="fill:#0f4496;"/><path d="m1247.73682,499.65698h100.83447c.28809,0,.57031.04956.8418.1333-.27148-.08386-.55371-.13342-.8418-.13342h-100.83447c-1.38379,0-2.43896.94092-2.76074,2.11169.32178-1.1709,1.37695-2.11157,2.76074-2.11157Z" style="fill:#0f4496;"/><path d="m2099.17236,683.19995c.60303,0,1.11963-.15771,1.5415-.42114-.42188.26343-.93896.42114-1.5415.42114h0Z" style="fill:#0f4496;"/><path d="m1717.2002,683.19995h0c-.17236,0-.33984-.03833-.5083-.06909.16846.03076.33594.06909.5083.06909Z" style="fill:#0f4496;"/><path d="m1489.41846,586.46851c-.24512-.06738-.49854-.10645-.75537-.10645h-300.10352,300.10352c.25684,0,.51025.03906.75537.10645Z" style="fill:#0f4496;"/><path d="m1492.45703,542.70483h134.66162-134.66162c-1.81201,0-2.90479,1.4917-2.8623,2.97437-.04248-1.48267,1.05029-2.97437,2.8623-2.97437Z" style="fill:#0f4496;"/><path d="m1764.37012,770.89453c.09082.28223.13477.57471.13477.86597,0-.29126-.04395-.58374-.13477-.86597Z" style="fill:#0f4496;"/><path d="m1713.5542,736.19043l-223.30176-149.34595c-.20264-.13525-.42236-.23779-.6499-.31714.22754.07935.44727.18188.6499.31714l223.30176,149.34595Z" style="fill:#0f4496;"/><path d="m1594.43457,510.95642c-.92578-.35364-1.4834-1.02625-1.71582-1.78381.23242.75757.79004,1.43018,1.71582,1.78381l36.00342,13.74841h0l-36.00342-13.74841Z" style="fill:#0f4496;"/><path d="m1910.20752,562.2749h0c1.8667,0,2.89014-1.48853,2.85986-2.95178.03027,1.46326-.99316,2.95178-2.85986,2.95178Z" style="fill:#0f4496;"/><path d="m1593.92822,505.84082c-.27979.17236-.51807.39111-.71289.64111.19482-.25.43311-.46875.71289-.64111Z" style="fill:#0f4496;"/><path d="m2101.87305,681.2854c-.10156.30164-.25098.58716-.44531.84131.19434-.25415.34375-.53967.44531-.84131Z" style="fill:#0f4496;"/><path d="m1592.64355,507.76758c.05713-.31018.16211-.61157.3125-.88904-.15039.27747-.25537.57886-.3125.88904Z" style="fill:#0f4496;"/><polygon points="1730.47559 505.53589 1730.47559 505.53589 1788.15625 521.87415 1730.47559 505.53589" style="fill:#0f4496;"/><path d="m1912.88867,558.36792c.11328.30603.17188.63.17871.9552-.00684-.3252-.06543-.64917-.17871-.9552Z" style="fill:#0f4496;"/><path d="m744.20312,638.67126l-65.94482,48.5376,65.94482-48.5376c2.39648-1.76379,1.14893-5.56323-1.82666-5.56323,2.97559,0,4.22314,3.79944,1.82666,5.56323Z" style="fill:#0f4496;"/><path d="m763.24756,654.2417c-.33691-.05457-.64648-.16101-.9248-.30835.27832.14734.58789.25378.9248.30835Z" style="fill:#0f4496;"/><path d="m443.75342,713.6106c-1.81934,1.65186-.96143,4.84705,1.52832,5.27954-2.48926-.4325-3.34717-3.62793-1.52832-5.27954Z" style="fill:#0f4496;"/><path d="m1489.59961,545.72192c.03809.87524.46973,1.74243,1.38721,2.29272l126.43799,75.82471-126.43799-75.82471c-.91748-.55029-1.34912-1.41748-1.38721-2.29272Z" style="fill:#0f4496;"/><path d="m635.80225,718.43896c-.14062.09082-.28662.16895-.43896.23535.15234-.06628.29834-.14453.43896-.23535Z" style="fill:#0f4496;"/><path d="m1055.73779,552.74634h0c.67139,0,1.26367.22681,1.75684.5769-.49268-.3501-1.08545-.5769-1.75684-.5769Z" style="fill:#0f4496;"/><path d="m197.43311,650.47998c-.14355.14233-.2688.29517-.37305.45959.10425-.16443.22949-.31726.37305-.45959Z" style="fill:#0f4496;"/><path d="m760.90527,650.11206h0c-.54688,1.41895.06445,3.10449,1.41748,3.82129-1.35303-.7168-1.96436-2.40234-1.41748-3.82129Z" style="fill:#0f4496;"/><path d="m2101.98975,680.823c.02686-.15698.0415-.31592.04346-.4751-.00195.15918-.0166.31812-.04346.4751Z" style="fill:#0f4496;"/><path d="m1019.39551,654.2832c.47705,0,.93555-.1106,1.34668-.3114-.41113.20081-.86963.3114-1.34668.3114h0Z" style="fill:#0f4496;"/><path d="m1383.21826,695.69263c.19238-.15881.3623-.3418.50635-.54272-.14404.20093-.31396.38391-.50635.54272Z" style="fill:#0f4496;"/><path d="m1232.97168,695.02539c.25732.39966.60986.72754,1.02246.95532-.4126-.22778-.76514-.55566-1.02246-.95532Z" style="fill:#0f4496;"/><path d="m1763.22998,769.41394l-49.67578-33.22351-223.30176-149.34595c-.20264-.13525-.42236-.23779-.6499-.31714-.06104-.02124-.12207-.04175-.18408-.05884-.24512-.06738-.49854-.10645-.75537-.10645h-300.10352c-3.49072,13.47607-5.58154,26.40369-6.10156,38.29565-.6333,14.45264-12.4624,25.7738-26.93018,25.7738h-13.80713c-14.46826,0-26.29688-11.32117-26.93018-25.77454-.52002-11.8916-2.61084-24.81885-6.10205-38.29492h-42.04443l-27.56006,72.34924c-3.08984,8.1178-11.00195,13.5719-19.68848,13.5719h-93.08789l-69.84766,97.84595c-1.35059,1.89197.00195,4.51917,2.32617,4.51917h902.85498c1.76611,0,2.86279-1.43103,2.86377-2.88782,0-.29126-.04395-.58374-.13477-.86597s-.229-.5542-.41797-.80469-.42871-.47949-.72217-.6759Zm-363.46973-66.02722c-3.64648,6.75415-10.6792,10.94983-18.35498,10.94983h-146.02979c-9.70898,0-18.05469-6.59741-20.29443-16.04077l-9.4502-39.80811c-1.48291-6.24561-.05029-12.71582,3.93018-17.75183,3.98047-5.03589,9.94482-7.92419,16.36377-7.92419h129.35352c7.05078,0,13.56982,3.51929,17.43799,9.41333l26.12695,39.80835c4.21191,6.41699,4.56299,14.59912.91699,21.35339Z" style="fill:#0f4496;"/><path d="m1357.66797,652.10156l11.83545,18.0332-11.83545-18.0332c-.52832-.80505-1.42676-1.28992-2.38965-1.28992h0c.96289,0,1.86133.48486,2.38965,1.28992Z" style="fill:#0f4496;"/><path d="m1225.9248,650.81165c-.46143,0-.89258.10767-1.27295.29724.38037-.18958.81201-.29724,1.27295-.29724h0Z" style="fill:#0f4496;"/><path d="m494.68457,655.06982l51.15869-24.50891,124.68555-59.73413c1.02881-.49292,1.54053-1.38062,1.61768-2.29773.0127-.15283.01318-.30652.00244-.45923-.03613-.50427-.20605-.99487-.48291-1.41919-.14111-.21606-.30518-.41748-.50293-.58887-.00244-.00208-.00439-.00464-.00684-.00659-.47266-.40698-1.10156-.66455-1.8623-.66455h-209.96826c-.19775,0-.39355.02808-.58691.06873-.09912.02087-.19824.03943-.29443.07056l-259.84546,84.24304c-.08228.02661-.15112.06543-.22827.09705-.16382.06726-.31689.14319-.45703.23059-.17993.1123-.33936.2395-.48047.37939-.14355.14233-.2688.29517-.37305.45959-.55518.87476-.57007,2.00903-.1062,2.91089.14673.28564.34082.54749.57959.76965.47729.44458,1.13306.73035,1.94702.73035h293.96924c.42725,0,.84912-.09583,1.23486-.28064Z" style="fill:#0f4496;"/><polygon points="758.5249 493.10596 651.92529 493.10596 587.70947 512.80078 708.08887 512.80078 731.65479 503.59851 758.5249 493.10596" style="fill:#95c11f;"/><path d="m1245.27686,503.97083l6.08545,10.28552,6.08594,10.2854c.10059.17041.22949.31641.36035.45947.03564.03955.06104.08936.09912.12659.04297.04211.09766.06897.14307.10815.32617.28137.70166.50012,1.11914.61182.23779.0636.48584.09692.73828.09692h114.81543c.16943,0,.3335-.01331.49072-.03894.15723-.02539.30811-.06323.45166-.11157.43213-.14551.80273-.38879,1.09961-.69556.59424-.61377.89453-1.48193.80713-2.33154-.07275-.70801-.41553-1.4032-1.08203-1.92749l-26.15234-20.57092c-.27783-.21838-.59277-.37561-.92529-.47839-.27148-.08374-.55371-.1333-.8418-.1333h-100.83447c-1.38379,0-2.43896.94067-2.76074,2.11157-.03223.11707-.05713.23645-.07422.35742s-.02637.24365-.02783.36694c-.00439.49377.12109,1.00159.40283,1.47791Z" style="fill:#95c11f;"/><path d="m1383.79492,691.90967l-14.2915-21.7749-11.83545-18.0332c-.52832-.80505-1.42676-1.28992-2.38965-1.28992h-129.35352c-.46094,0-.89258.10767-1.27295.29724-1.1416.56873-1.82764,1.87451-1.50781,3.22131l9.4502,39.80811c.07666.32214.20557.62061.37744.88708.25732.39966.60986.72754,1.02246.95532.41211.22791.88477.35583,1.38135.35583h146.02979c.14209,0,.28076-.00989.41504-.02881.53857-.07581,1.01318-.29724,1.39795-.61511.19238-.15881.3623-.3418.50635-.54272.07178-.10034.13721-.20532.19629-.31396.46875-.86914.49805-1.97583-.12598-2.92627Z" style="fill:#95c11f;"/><path d="m1019.39551,654.2832c.47705,0,.93555-.1106,1.34668-.3114.41064-.20081.77344-.49207,1.05908-.85339.19092-.24097.34668-.51294.45996-.8103l36.34229-95.4032c.52588-1.38-.02441-2.8114-1.10889-3.58167-.49316-.3501-1.08545-.5769-1.75684-.5769h-125.13818l-13.24609,11.43164c-3.78662,3.26868-8.62695,5.06873-13.62939,5.06873h-41.62939l-100.229,79.56763c-.05029.04004-.08984.08557-.13672.12732-.26221.39746-.53564.78809-.82373,1.17041-.54688,1.41895.06445,3.10449,1.41748,3.82129.27832.14734.58789.25378.9248.30835.16797.02722.34326.0415.5249.0415h255.62305Z" style="fill:#95c11f;"/><path d="m1729.0918,562.25122c-.10693-.00977-.21289-.01855-.31787-.04016.10498.02161.21094.0304.31787.04016Z" style="fill:#0f4496;"/><path d="m2101.70459,678.96362c-.07617-.14282-.16553-.27979-.26904-.4093-.31055-.38855-.74561-.70886-1.31445-.90906l-276.62109-97.37036h-94.14893c-2.55518,0-5.06055-.46252-7.44092-1.37244l-94.7915-36.19763h-134.66162c-1.81201,0-2.90479,1.4917-2.8623,2.97437.00049.0144.00391.02856.00488.04272.03809.87524.46973,1.74243,1.38721,2.29272l126.43799,75.82471,98.30566,58.95361c.2959.17749.62451.27637.96143.33789.16846.03076.33594.06909.5083.06909h381.97217c.60254,0,1.11963-.15771,1.5415-.42114.28076-.17554.52002-.39807.71387-.6521.19434-.25415.34375-.53967.44531-.84131.05078-.15076.08984-.30554.1167-.4624.02686-.15698.0415-.31592.04346-.4751.00635-.47742-.1001-.9563-.32861-1.38428Z" style="fill:#95c11f;"/><path d="m120.92358,1018.79419h56.84741v60.1333c-7.55762.65723-18.07275,1.97156-27.27368,1.97156-57.83301,0-79.19189-10.84363-79.19189-90.03552,0-79.84912,21.6875-88.3927,83.46362-88.3927,17.74438,0,56.84741,3.28601,71.30566,8.21497l11.82959-58.49048c-22.01611-5.91455-63.09082-10.18628-90.03564-10.18628-95.95044,0-147.86865,30.55945-147.86865,148.19727,0,117.30908,44.03198,152.46912,136.36768,152.46912,37.13159,0,85.4353-5.91492,109.42285-13.47253v-167.25586h-124.86694v56.84717Z" style="fill:#95c11f;"/><polygon points="470.55078 848.90942 405.81738 848.90942 354.88477 902.14221 408.7749 902.14221 470.55078 848.90942" style="fill:#95c11f;"/><path d="m392.67358,919.88647c-60.79053,0-99.56494,24.97339-99.56494,110.08008,0,86.74951,44.03198,112.70886,103.50806,112.70886,23.65918,0,55.2041-4.60046,76.23438-11.50085l-9.5293-48.30396c-15.44385,3.94336-43.37451,6.90063-58.49023,6.90063-30.55957,0-45.6748-6.24341-46.66064-40.08887h130.78174c6.24316-108.76575-26.28809-130.12451-96.27905-129.7959Zm-34.17407,83.13513c3.94312-26.94495,10.51514-35.48865,36.80273-35.48865,24.97363,0,32.53125,6.24341,33.51709,35.48865h-70.31982Z" style="fill:#95c11f;"/><path d="m624.9917,919.88647c-67.3623,0-102.52246,23.65894-102.52246,110.08008s34.17432,112.38025,102.52246,112.70886c69.00537,0,103.17969-25.95935,103.17969-112.70886,0-86.09253-34.50293-110.08008-103.17969-110.08008Zm0,172.84204c-29.90234,0-38.4458-8.54346-38.4458-61.77612,0-55.20435,8.54346-61.77637,38.4458-61.77637,30.23096,0,38.77441,6.57202,38.77441,61.77637,0,53.23267-8.54346,61.77612-38.77441,61.77612Z" style="fill:#95c11f;"/><path d="m978.23389,928.75854c0-70.3197-35.81738-86.74951-107.77979-86.74951-37.13184,0-74.26318,6.24329-97.92236,14.45825l13.80127,57.17578c18.72998-6.24329,50.93262-11.17224,77.22021-11.17224,32.85986,0,43.70361,6.90051,43.70361,32.85974,0,38.11719-7.88672,46.00366-143.59717,147.21143v54.21851h215.88818v-58.16162h-124.20947c103.5083-69.00537,122.89551-89.0498,122.89551-149.84033Z" style="fill:#0f4496;"/><polygon points="1040.00977 1136.43188 1106.38672 1136.43188 1106.38672 1030.62378 1212.52344 1030.62378 1212.52344 973.77637 1106.38672 973.77637 1106.38672 907.07117 1249.65479 907.07117 1249.65479 848.90942 1249.65479 848.58093 1040.00977 848.58093 1040.00977 1136.43188" style="fill:#0f4496;"/><path d="m1332.46143,941.90247v-16.42981h-63.41943v211.28784h63.41943v-138.66785c0-13.80115,19.71582-21.35876,42.38916-21.35876,10.18652,0,21.35889.65698,29.57373,3.28589v-59.14746c-7.229-.98584-14.78711-1.31445-20.70166-1.31445-30.55957,0-44.36084,9.85791-51.26123,22.3446Z" style="fill:#0f4496;"/><path d="m1522.06201,919.22925c-31.2168,0-66.37646,4.92896-90.69287,11.17236l9.85791,50.27539c17.74463-5.25757,41.40332-9.85791,65.71924-9.85791,41.40381,0,47.97559,8.21484,47.97559,37.45996-16.10156-3.28589-32.20264-5.25745-47.97559-5.25745-50.2749,0-82.47754,9.5293-82.47754,69.00537,0,55.53284,20.70166,70.31982,90.36426,70.31982,30.8877,0,71.63428-6.24329,100.22217-16.42981v-124.53833c0-62.76221-29.90234-82.14941-92.99316-82.14941Zm32.85986,170.54199c-9.85791,3.94312-23.33057,5.91467-35.16016,5.91467-24.97314,0-30.23096-3.94299-30.23096-25.30188,0-21.03027,8.21533-23.65906,30.88818-23.65906,12.81543,0,24.64502.32861,34.17432,2.9574h.32861v40.08887Z" style="fill:#0f4496;"/><path d="m1775.08203,919.55786c-38.11719,0-80.17773,9.20068-107.45117,19.05859v198.14404h63.74756v-157.06934c10.51514-2.30029,20.04443-3.6145,30.23096-3.6145,30.88818,0,37.13135,10.18652,37.13135,48.63232v111.7229h63.41943v-116.65186c0-75.90601-28.9165-100.22217-87.07812-100.22217Z" style="fill:#0f4496;"/><path d="m2016.27246,974.10498c17.41553,0,36.14551,3.94312,47.9751,8.54346l13.14404-53.56128c-16.43018-5.91479-44.36084-9.20068-66.37695-9.20068-62.76221,0-105.15088,24.31616-105.15088,110.08008,0,86.74951,42.06006,112.70886,105.15088,112.70886,21.03027,0,49.28955-3.94324,66.37695-10.84387l-13.14404-52.90405c-12.1582,4.92896-29.90234,9.5293-47.9751,9.5293-30.88818,0-46.66113-7.22913-46.66113-56.84729,0-52.24695,15.77295-57.50452,46.66113-57.50452Z" style="fill:#0f4496;"/><path d="m2200.28662,919.88647c-60.79053,0-99.56494,24.97339-99.56494,110.08008,0,86.74951,44.03223,112.70886,103.5083,112.70886,23.65869,0,55.2041-4.60046,76.23438-11.50085l-9.5293-48.30396c-15.44434,3.94336-43.375,6.90063-58.49023,6.90063-30.55957,0-45.67529-6.24341-46.66064-40.08887h130.78125c5.91504-108.76575-26.61621-130.12451-96.27881-129.7959Zm-34.17383,83.13513c3.61426-26.94495,10.18604-35.48865,36.80273-35.48865,24.97314,0,32.53076,6.24341,33.5166,35.48865h-70.31934Z" style="fill:#0f4496;"/><path d="m1010.96094,397.25781c62.56104,59.31201,97.54932,120.47876,113.40332,171.10425,1.93018,6.16309,3.58057,12.17188,4.9585,18h0c3.19873,13.52905,4.95312,26.09717,5.44873,37.42065.16309,3.72205,3.22363,6.6488,6.94922,6.6488h13.80713c3.72559,0,6.78613-2.92676,6.94922-6.6488.49561-11.32349,2.25-23.8916,5.44873-37.42065h0c1.37793-5.82812,3.02832-11.83691,4.9585-18,15.854-50.62549,50.84229-111.79224,113.40332-171.10425,4.07568-3.86475,7.95752-7.8728,11.65967-12.00122,23.62891-26.35132,39.55518-57.875,46.67969-92.03149h-28.87695c-7.77051,31.67163-24.44434,60.48975-48.82666,83.60669-2.73096,2.58911-5.46973,5.24829-8.21094,7.9707-.0498.04956-.09961.09741-.14941.14697-.01611.01587-.03223.03247-.04785.04834-12.54395,12.47241-25.13428,26.30493-37.23145,41.18823-4.0376,4.96729-8.02002,10.05176-11.92822,15.2417-2.60498,3.45972-5.17676,6.96631-7.70947,10.5166-1.26611,1.77515-2.52295,3.56104-3.76904,5.35742-3.73779,5.38916-7.38086,10.87207-10.90869,16.43726-2.35205,3.71021-4.65283,7.45679-6.89648,11.23682-4.48779,7.55981-8.74756,15.2522-12.73145,23.0498-5.97607,11.69653-11.33154,23.62988-15.90723,35.70752-.98438,2.59863-4.6333,2.59863-5.61768,0-6.10059-16.10364-13.58838-31.95044-22.08398-47.32166-25.48633-46.1134-60.04004-87.94519-93.40576-119.57947-34.70703-32.90625-53.82227-77.35547-53.82227-125.15967,0-27.49072,6.37939-53.98193,18.43994-77.79785.02832-.05542.05859-.10962.08643-.16504,1.17578-2.31494,2.40723-4.60352,3.68994-6.86621,1.67822-2.96143,3.45264-5.87378,5.31152-8.73975,6.67822-10.29736,14.50195-19.96094,23.42432-28.81982,4.55615-4.52393,9.32568-8.75098,14.27393-12.69531,1.26758-1.01025,2.54639-2.00195,3.83789-2.97363.65381-.49219,1.30957-.98193,1.96973-1.46387,1.93018-1.40991,3.88379-2.78149,5.86377-4.10522.08643-.05786.1709-.11865.25781-.17627,27.92969-18.59717,60.67676-28.59546,94.96582-28.6626,45.71826.08936,88.69531,17.83447,121.16895,50.07666,12.50439,12.41577,22.86377,26.40527,30.90869,41.52051h31.28369c-1.43018-3.24585-2.93994-6.45752-4.54395-9.62476-.03223-.06445-.06738-.12744-.1001-.19189-1.36719-2.69287-2.80029-5.35498-4.29199-7.9873-8.96582-15.82178-20.1582-30.51636-33.4248-43.68896-37.36182-37.09619-86.66992-57.68115-139.19775-58.22754v-.02148c-.24268-.00146-1.02246-.00195-1.80273-.00195h-.34619c-.65283.00024-1.25098.00073-1.45703.00195v.00488l.00049.01636h0v.00024c-52.52783.54639-101.83643,21.13135-139.19824,58.22754-16.69873,16.58081-30.11865,35.56934-39.93799,56.18799-12.65332,26.5708-19.32715,55.84888-19.32715,86.1731,0,48.10278,16.64795,93.27466,47.27002,129.36963,4.77783,5.63159,9.88428,11.05005,15.33252,16.21606Z" style="fill:#0f4496;"/><path d="m1148.7002,355.71265c57.59961,0,104.46094-46.86133,104.46094-104.46094s-46.86133-104.45996-104.46094-104.45996-104.46094,46.86035-104.46094,104.45996,46.86133,104.46094,104.46094,104.46094Zm0-182.9209c43.26367,0,78.46094,35.19727,78.46094,78.45996s-35.19727,78.46094-78.46094,78.46094-78.46094-35.19727-78.46094-78.46094,35.19727-78.45996,78.46094-78.45996Z" style="fill:#95c11f;"/><path d="m1594.43457,510.95642l36.00342,13.74841,14.43457,5.51196,83.45898,31.87c.14355.05493.29248.09326.44238.12427.10498.02161.21094.0304.31787.04016.08643.00781.17188.02368.25928.02368h180.85645c1.8667,0,2.89014-1.48853,2.85986-2.95178-.00684-.3252-.06543-.64917-.17871-.9552-.11279-.30615-.28027-.59436-.50439-.84814-.33594-.38074-.79932-.68396-1.39795-.85352l-122.83008-34.79211-57.68066-16.33826c-.25391-.0719-.51562-.10828-.7793-.10828h-134.2417c-.19824,0-.38721.01721-.56689.04968-.35889.06494-.67969.19116-.95947.36353s-.51807.39111-.71289.64111c-.09766.125-.18408.25781-.25928.39661-.15039.27747-.25537.57886-.3125.88904-.08594.46533-.06396.95044.0752,1.40503.23242.75757.79004,1.43018,1.71582,1.78381Z" style="fill:#ed1c24;"/><path d="m635.80225,718.43896c.05322-.03418.10986-.06201.16113-.09973l42.29492-31.13037,65.94482-48.5376c2.39648-1.76379,1.14893-5.56323-1.82666-5.56323h-145.14355c-.25,0-.49805.0304-.73926.08997-.24072.05957-.47461.14819-.6958.26465l-151.37354,79.66785c-.25928.13635-.4751.30237-.6709.4801-1.81885,1.65161-.96094,4.84705,1.52832,5.27954.18408.03198.37646.04883.57764.04883h188.27734c.42578,0,.84033-.09668,1.22656-.26465.15234-.06641.29834-.14453.43896-.23535Z" style="fill:#ed1c24;"/><path d="m719.67725,551.24658h184.04688c.27832,0,.5498-.05054.81201-.12866.22314-.06641.44043-.14966.64111-.26819.146-.08606.28467-.18542.41455-.29749l18.31445-15.80591,25.70166-22.18066c.25049-.21643.45068-.45715.604-.71277.09521-.1582.16602-.32324.22559-.4906.61621-1.72595-.58447-3.81909-2.69727-3.81909h-148.36133c-.16992,0-.3374.02637-.50391.05627-.25.04492-.49512.11194-.72559.2218l-15.63379,7.45105-64.06836,30.53552c-.68701.32764-1.14453.8313-1.396,1.40259-.12549.28564-.2002.58838-.22607.89417-.12988,1.52942.94873,3.14197,2.85205,3.14197Z" style="fill:#0f4496;"/><rect x="1414.6958" y="86.4209" width="86.42139" height="86.42114" style="fill:#ed1c24;"/><rect x="1328.2749" width="86.4209" height="86.4209" style="fill:#0f4496;"/><rect x="1306.99219" y="188.80396" width="86.4209" height="86.42114" style="fill:#95c11f;"/></g></svg>